<svg version="1.1" xmlns="http://www.w3.org/2000/svg" xmlns:xlink="http://www.w3.org/1999/xlink" viewBox="0 0 254 50" xml:space="preserve">
    <path class="ring" d="M0,24.999C0.002,11.192,11.192,0.001,24.999,0l0,0c0.012,0,58.095,0,58.095,0v0.024
        c13.291,0.582,23.889,11.539,23.892,24.975l0,0c-0.003,13.802-11.182,24.988-24.982,24.998l0,0L24.999,50
        C11.192,49.997,0.002,38.806,0,24.999L0,24.999z M4.961,24.999c0.001,5.543,2.238,10.535,5.868,14.169l0,0
        c3.636,3.632,8.628,5.87,14.169,5.871l0,0h57.002c11.059-0.008,20.023-8.978,20.023-20.038l0,0l0,0v-0.004l0,0l0,0l0,0
        c0-11.056-8.957-20.021-20.005-20.036l0,0c-0.374,0-57.008,0-57.021,0l0,0c-5.542,0.001-10.533,2.237-14.169,5.869l0,0v-0.001
        C7.199,14.465,4.962,19.458,4.961,24.999L4.961,24.999z"/>
    <circle class="dot" cx="81.576" cy="25" r="15.466"/>
    <path d="M142.257,32.104l-2.418-6.723h-9.254l-2.368,6.723h-4.172l9.059-24.307h4.305l9.057,24.307H142.257z
         M138.799,21.971l-2.27-6.59c-0.167-0.441-0.396-1.136-0.688-2.085c-0.29-0.95-0.495-1.646-0.603-2.087
        c-0.301,1.358-0.737,2.843-1.308,4.455l-2.189,6.308H138.799z"/>
    <path d="M156.535,32.104h-3.953V11.291h-7.124V7.896h18.2v3.395h-7.123V32.104z"/>
    <path d="M167.367,32.104V7.896h3.959v20.816h10.248v3.393H167.367z"/>
    <path d="M199.439,32.104h-13.695V7.896h13.695v3.345h-9.736v6.59h9.125v3.313h-9.125v7.601h9.736V32.104z"/>
    <path d="M213.947,32.104h-3.959V11.291h-7.119V7.896h18.195v3.395h-7.117V32.104z"/>
    <path d="M224.777,32.104V7.896h3.955v24.208H224.777z"/>
    <path d="M253.146,32.104h-4.588l-7.602-10.96l-2.33,1.903v9.057h-3.959V7.896h3.959v11.558
        c1.078-1.325,2.156-2.599,3.225-3.824l6.541-7.734h4.504c-4.227,4.969-7.256,8.506-9.088,10.615L253.146,32.104z"/>
    <path d="M129.282,48.018h-5.081v-8.98h5.081v1.242h-3.613v2.444h3.384v1.227h-3.384v2.821h3.613V48.018z"/>
    <path d="M138.882,48.018h-1.703l-2.818-4.067l-0.865,0.709v3.358h-1.466v-8.98h1.466v4.288
        c0.399-0.492,0.804-0.964,1.199-1.418l2.426-2.87h1.67c-1.57,1.844-2.693,3.158-3.372,3.938L138.882,48.018z"/>
    <path d="M146.049,45.58c0,0.798-0.286,1.425-0.865,1.88c-0.579,0.454-1.373,0.681-2.39,0.681
        c-1.016,0-1.845-0.157-2.493-0.472V46.28c0.408,0.193,0.845,0.343,1.308,0.454c0.457,0.11,0.891,0.165,1.286,0.165
        c0.582,0,1.012-0.108,1.285-0.33c0.275-0.223,0.412-0.519,0.412-0.891c0-0.338-0.124-0.623-0.379-0.854
        c-0.253-0.232-0.777-0.51-1.573-0.83c-0.815-0.334-1.395-0.713-1.731-1.136c-0.338-0.428-0.504-0.939-0.504-1.537
        c0-0.748,0.268-1.338,0.8-1.77c0.532-0.429,1.245-0.645,2.145-0.645c0.86,0,1.714,0.189,2.567,0.565l-0.467,1.2
        c-0.799-0.338-1.51-0.507-2.14-0.507c-0.475,0-0.836,0.104-1.082,0.31c-0.244,0.209-0.366,0.481-0.366,0.823
        c0,0.232,0.05,0.434,0.146,0.597c0.1,0.167,0.262,0.323,0.487,0.47c0.224,0.148,0.628,0.345,1.214,0.584
        c0.659,0.274,1.142,0.53,1.448,0.77c0.309,0.235,0.534,0.503,0.676,0.804C145.979,44.82,146.049,45.175,146.049,45.58z"/>
    <path d="M154.541,41.754c0,0.937-0.309,1.656-0.924,2.155c-0.611,0.499-1.486,0.75-2.624,0.75h-0.932v3.358h-1.469
        v-8.98h2.584c1.125,0,1.965,0.23,2.524,0.688C154.258,40.184,154.541,40.86,154.541,41.754z M150.062,43.425h0.779
        c0.754,0,1.307-0.131,1.661-0.395c0.35-0.261,0.529-0.672,0.529-1.227c0-0.516-0.16-0.903-0.475-1.155
        c-0.316-0.256-0.809-0.382-1.475-0.382h-1.02V43.425z"/>
    <path d="M162.217,48.018h-5.078v-8.98h5.078v1.242h-3.607v2.444h3.383v1.227h-3.383v2.821h3.607V48.018z"/>
    <path d="M166.43,44.43v3.588h-1.465v-8.98h2.535c1.162,0,2.02,0.219,2.572,0.651
        c0.559,0.436,0.838,1.09,0.838,1.967c0,1.118-0.584,1.913-1.746,2.39l2.535,3.973h-1.668l-2.148-3.588H166.43z M166.43,43.215
        h1.02c0.688,0,1.184-0.128,1.486-0.382c0.309-0.253,0.461-0.63,0.461-1.131c0-0.507-0.166-0.871-0.494-1.091
        c-0.332-0.222-0.832-0.332-1.498-0.332h-0.975V43.215z"/>
    <path d="M173.811,48.018v-8.98h1.465v8.98H173.811z"/>
    <path d="M182.336,48.018l-2.605-7.499h-0.051c0.07,1.113,0.104,2.159,0.104,3.133v4.366h-1.332v-8.98h2.07
        l2.496,7.145h0.037l2.564-7.145h2.078v8.98h-1.412v-4.44c0-0.445,0.008-1.029,0.033-1.744c0.021-0.717,0.041-1.151,0.059-1.302
        h-0.051l-2.697,7.486H182.336z"/>
    <path d="M195.947,48.018h-5.082v-8.98h5.082v1.242h-3.613v2.444h3.385v1.227h-3.385v2.821h3.613V48.018z"/>
    <path d="M206.176,48.018h-1.803l-4.418-7.154h-0.045l0.029,0.399c0.059,0.761,0.086,1.457,0.086,2.088v4.667
        h-1.336v-8.98h1.783l4.404,7.12h0.037c-0.008-0.093-0.025-0.438-0.051-1.028c-0.02-0.593-0.037-1.056-0.037-1.386v-4.706h1.35
        V48.018z"/>
    <path d="M212.451,48.018h-1.469v-7.719h-2.645v-1.262h6.754v1.262h-2.641V48.018z"/>
    <path d="M222.842,48.018l-0.895-2.493h-3.434l-0.879,2.493h-1.549l3.363-9.016h1.594l3.359,9.016H222.842z
         M221.559,44.259l-0.84-2.445c-0.062-0.162-0.146-0.421-0.254-0.773c-0.107-0.35-0.184-0.608-0.225-0.773
        c-0.113,0.504-0.273,1.055-0.488,1.653l-0.811,2.339H221.559z"/>
    <path d="M227.861,44.43v3.588h-1.469v-8.98h2.539c1.158,0,2.016,0.219,2.572,0.651
        c0.559,0.436,0.838,1.09,0.838,1.967c0,1.118-0.584,1.913-1.744,2.39l2.533,3.973h-1.668l-2.152-3.588H227.861z M227.861,43.215
        h1.02c0.684,0,1.18-0.128,1.486-0.382c0.309-0.253,0.463-0.63,0.463-1.131c0-0.507-0.166-0.871-0.5-1.091
        c-0.328-0.222-0.832-0.332-1.498-0.332h-0.971V43.215z"/>
    <path d="M235.238,48.018v-8.98h1.469v8.98H235.238z"/>
    <path d="M244.961,48.018h-5.078v-8.98h5.078v1.242h-3.613v2.444h3.391v1.227h-3.391v2.821h3.613V48.018z"/>
    <path d="M250.811,48.018h-1.469v-7.719h-2.641v-1.262h6.748v1.262h-2.639V48.018z"/>
</svg>
